<?xml version="1.0" standalone="no"?>
<!DOCTYPE svg PUBLIC "-//W3C//DTD SVG 20010904//EN"
 "http://www.w3.org/TR/2001/REC-SVG-20010904/DTD/svg10.dtd">
<svg version="1.0" xmlns="http://www.w3.org/2000/svg"
 width="600.000000pt" height="600.000000pt" viewBox="0 0 600.000000 600.000000"
 preserveAspectRatio="xMidYMid meet">
<metadata>
Created by potrace 1.11, written by Peter Selinger 2001-2013
</metadata>
<g transform="translate(0.000000,600.000000) scale(0.100000,-0.100000)"
fill="#000000" stroke="none">
<path d="M1486 5578 c-7 -13 -345 -598 -750 -1300 l-736 -1278 748 -1297 748
-1298 1503 0 1503 0 749 1297 748 1298 -748 1297 -749 1298 -1501 3 -1500 2
-15 -22z m1431 -960 c124 -123 153 -158 153 -180 l0 -28 -720 0 -720 0 0 -180
0 -180 572 0 573 0 147 -147 148 -148 0 -245 0 -245 -147 -147 -148 -148 -605
0 -605 0 -148 148 c-129 129 -147 151 -147 180 l0 32 720 0 720 0 0 180 0 180
-572 0 -573 0 -147 147 -148 148 0 239 0 239 148 153 147 152 600 1 600 1 152
-152z m1685 -1715 l148 -148 0 -122 0 -123 -180 0 -180 0 0 90 0 90 -540 0
-540 0 0 -540 0 -540 540 0 540 0 0 90 0 90 180 0 180 0 0 -117 0 -118 -152
-152 -153 -153 -595 0 -595 0 -152 152 -153 153 0 590 0 590 157 157 158 158
595 0 595 0 147 -147z"/>
</g>
</svg>
